<?xml version="1.0" standalone="no"?>
<!DOCTYPE svg PUBLIC "-//W3C//DTD SVG 20010904//EN"
 "http://www.w3.org/TR/2001/REC-SVG-20010904/DTD/svg10.dtd">
<svg version="1.0" xmlns="http://www.w3.org/2000/svg"
 width="761.000000pt" height="761.000000pt" viewBox="0 0 761.000000 761.000000"
 preserveAspectRatio="xMidYMid meet">
<metadata>
Created by potrace 1.14, written by Peter Selinger 2001-2017
</metadata>
<g transform="translate(0.000000,761.000000) scale(0.100000,-0.100000)"
fill="#000000" stroke="none">
<path d="M3727 7604 c-1 -1 -45 -4 -97 -8 -52 -3 -104 -8 -115 -10 -28 -5 -95
-16 -130 -21 -26 -3 -80 -13 -160 -29 -69 -14 -297 -86 -390 -123 -118 -47
-255 -114 -323 -157 -23 -14 -44 -26 -46 -26 -8 0 -176 -119 -231 -163 -87
-70 -299 -289 -361 -372 -213 -286 -382 -609 -458 -878 -34 -118 -83 -364 -93
-462 -24 -257 4 -566 74 -795 87 -286 221 -538 522 -980 66 -96 208 -305 316
-465 266 -393 392 -578 402 -590 4 -5 51 -73 102 -150 52 -77 108 -158 123
-180 16 -22 46 -65 66 -96 20 -30 142 -209 270 -398 129 -188 232 -344 230
-346 -5 -5 -48 -12 -123 -21 -33 -3 -67 -7 -75 -9 -8 -1 -35 -6 -60 -10 -226
-36 -552 -136 -695 -214 -22 -11 -43 -21 -47 -21 -12 0 -133 -88 -175 -127
-163 -155 -181 -321 -50 -470 80 -91 164 -152 300 -217 122 -57 329 -130 435
-151 9 -2 46 -10 82 -18 36 -8 81 -18 100 -21 19 -3 44 -7 55 -10 11 -2 42 -7
68 -10 27 -4 58 -9 69 -11 10 -2 49 -7 86 -11 36 -3 74 -7 83 -9 122 -24 681
-23 904 1 149 16 345 46 440 68 473 108 763 259 877 456 24 41 42 109 40 153
-3 74 -66 188 -141 255 -103 92 -265 177 -462 243 -66 22 -128 42 -137 45 -51
13 -241 55 -267 60 -16 2 -37 7 -45 9 -15 4 -43 8 -223 29 l-99 11 174 290
c185 308 346 571 618 1010 231 373 515 837 523 855 4 8 17 31 30 51 116 187
377 669 361 669 -3 0 2 12 10 28 56 101 148 406 171 562 4 24 8 47 10 50 16
25 24 365 12 460 -12 89 -16 122 -22 175 -3 28 -7 57 -9 65 -2 13 -18 86 -21
100 -53 228 -190 563 -309 755 -267 428 -666 772 -1135 980 -133 59 -320 122
-414 139 -15 2 -30 7 -35 10 -4 2 -26 7 -48 10 -21 3 -70 9 -109 15 -103 15
-207 23 -334 25 -62 1 -113 1 -114 0z"/>
</g>
</svg>
